# xmcd CD database file
#
# Track frame offsets:
#        150
#        8994
#        20485
#        32401
#        43171
#        55028
#        67787
#        80100
#        91957
#        108502
#        120651
#        133166
#        146977
#
# Disc length: 2142 seconds
#
# Revision: 0
# Processed by: cddbd v1.5.2PL0 Copyright (c) Steve Scherf et al.
# Submitted via: CUERipper 2.1.5
#
DISCID=b0085c0d
DTITLE=Johnny Cash - I walk the line
DYEAR=1900
DGENRE=
TTITLE0=Ring of Fire
TTITLE1=A Boy Named Sue
TTITLE2=I walk the line
TTITLE3=Big River
TTITLE4=I got a woman
TTITLE5=Goodbye little darlin' goodbye
TTITLE6=Ballad of Ira Hayes
TTITLE7=Get Rhythm
TTITLE8=Luther played the boogie
TTITLE9=Cry Cry Cry
TTITLE10=I got stripes
TTITLE11=Folsom prison blues
TTITLE12=Peace in the Valley
EXTD=
EXTT0=
EXTT1=
EXTT2=
EXTT3=
EXTT4=
EXTT5=
EXTT6=
EXTT7=
EXTT8=
EXTT9=
EXTT10=
EXTT11=
EXTT12=
PLAYORDER=
